<?xml version="1.0" encoding="UTF-8"?>
<svg width="90px" height="90px" viewBox="0 0 90 90" version="1.1" xmlns="http://www.w3.org/2000/svg" xmlns:xlink="http://www.w3.org/1999/xlink">
    <!-- Generator: Sketch 49.2 (51160) - http://www.bohemiancoding.com/sketch -->
    <title>instagram</title>
    <desc>Created with Sketch.</desc>
    <defs></defs>
    <g id="Page-1" stroke="none" stroke-width="1" fill="none" fill-rule="evenodd">
        <g id="instagram" fill="#000000" fill-rule="nonzero">
            <path d="M75,0 L15,0 C6.7,0 0,6.7 0,15 L0,75 C0,83.3 6.7,90 15,90 L75,90 C83.3,90 90,83.3 90,75 L90,15 C90,6.7 83.3,0 75,0 Z M80,75 C80,77.8 77.8,80 75,80 L15,80 C12.2,80 10,77.8 10,75 L10,40 L25.7,40 C25.3,41.6 25,43.3 25,45 C25,56 34,65 45,65 C56,65 65,56 65,45 C65,43.3 64.8,41.6 64.3,40 L80,40 L80,75 Z M35,45 C35,39.5 39.5,35 45,35 C50.5,35 55,39.5 55,45 C55,50.5 50.5,55 45,55 C39.5,55 35,50.5 35,45 Z M80,30 L58.2,30 C54.7,26.9 50.1,25 45,25 C39.9,25 35.3,26.9 31.8,30 L10,30 L10,15 C10,12.2 12.2,10 15,10 L75,10 C77.8,10 80,12.2 80,15 L80,30 Z" id="Shape"></path>
        </g>
    </g>
</svg>