<?xml version="1.0" encoding="UTF-8"?>
<svg width="301px" height="25px" viewBox="0 0 301 25" version="1.1" xmlns="http://www.w3.org/2000/svg" xmlns:xlink="http://www.w3.org/1999/xlink">
    <!-- Generator: Sketch 49.2 (51160) - http://www.bohemiancoding.com/sketch -->
    <title>jerome-the-drone-logo-2</title>
    <desc>Created with Sketch.</desc>
    <defs></defs>
    <g id="Page-1" stroke="none" stroke-width="1" fill="none" fill-rule="evenodd">
        <g id="jerome-the-drone-logo-2" fill="#FFFFFF">
            <g id="noun_143359_cc" transform="translate(261.000000, 1.000000)" fill-rule="nonzero">
                <path d="M34.8553055,5.56043956 L31.4683816,5.56043956 C30.9967846,5.56043956 30.6109325,5.93956044 30.6109325,6.4029304 C30.6109325,6.48717949 30.6109325,6.65567766 30.6109325,6.82417582 L27.0525188,6.82417582 C26.0235798,3.91758242 22.3365488,3.91758242 20.0214362,3.91758242 C17.7063237,3.91758242 14.0192926,3.91758242 12.9903537,6.82417582 L9.43193998,6.82417582 C9.43193998,6.61355311 9.43193998,6.48717949 9.43193998,6.4029304 C9.43193998,5.93956044 9.04608789,5.56043956 8.57449089,5.56043956 L5.18756699,5.56043956 C4.71596999,5.56043956 4.3301179,5.93956044 4.3301179,6.4029304 C4.3301179,6.95054945 4.3301179,9.73076923 5.53054662,10.9102564 C5.91639871,11.2893773 6.38799571,11.5 6.90246517,11.5 C7.41693462,11.5 7.88853162,11.2893773 8.27438371,10.9102564 C8.83172562,10.3626374 9.1318328,9.39377289 9.30332262,8.55128205 L12.7759914,8.55128205 C12.7759914,8.59340659 12.7759914,8.63553114 12.7759914,8.67765568 C12.7759914,10.1520147 13.204716,11.3736264 14.0621651,12.3424908 L12.5616292,14.6593407 C12.3043944,15.0384615 12.4330118,15.5860806 12.8188639,15.8388278 C12.9474812,15.9230769 13.1189711,15.9652015 13.2904609,15.9652015 C13.5905681,15.9652015 13.8478028,15.8388278 14.0192926,15.5860806 L15.3912111,13.521978 C16.5916399,14.2802198 18.2207931,14.7014652 20.1500536,14.7014652 C22.0364416,14.7014652 23.6227224,14.2802198 24.8231511,13.5641026 L26.1521972,15.6282051 C26.323687,15.8809524 26.5809218,16.007326 26.8810289,16.007326 C27.0525188,16.007326 27.1811361,15.9652015 27.3526259,15.8809524 C27.738478,15.6282051 27.8670954,15.1227106 27.6098607,14.7014652 L26.1521972,12.4688645 C27.0096463,11.5 27.4812433,10.2362637 27.4812433,8.76190476 C27.4812433,8.71978022 27.4812433,8.67765568 27.4812433,8.63553114 L30.9539121,8.63553114 C31.1254019,9.52014652 31.4255091,10.4468864 31.982851,10.9945055 C32.3687031,11.3736264 32.8403001,11.5842491 33.3547696,11.5842491 C33.869239,11.5842491 34.340836,11.3736264 34.7266881,10.9945055 C35.9271168,9.81501832 35.9271168,7.03479853 35.9271168,6.48717949 C35.7127546,5.93956044 35.3269025,5.56043956 34.8553055,5.56043956 Z M6.98821008,9.68864469 C6.94533762,9.77289377 6.90246517,9.77289377 6.85959271,9.77289377 C6.81672026,9.77289377 6.81672026,9.77289377 6.73097535,9.68864469 C6.34512326,9.30952381 6.13076099,8.21428571 6.04501608,7.24542125 L7.67416935,7.24542125 C7.58842444,8.21428571 7.37406217,9.30952381 6.98821008,9.68864469 Z M20.0214362,5.6025641 C24.3086817,5.6025641 25.6377278,6.31868132 25.6377278,8.63553114 C25.6377278,10.3626374 24.8231511,11.3736264 23.8370847,12.0054945 C23.8370847,11.8791209 23.8799571,11.7948718 23.8799571,11.6684982 C23.8799571,9.85714286 22.5937835,8.93040293 20.0643087,8.93040293 C17.5348339,8.93040293 16.2486602,9.85714286 16.2486602,11.6684982 C16.2486602,11.7948718 16.2486602,11.8791209 16.2915327,12.0054945 C15.2625938,11.3736264 14.4908896,10.3626374 14.4908896,8.63553114 C14.4051447,6.27655678 15.7341908,5.6025641 20.0214362,5.6025641 Z M17.920686,11.6684982 C17.920686,11.2472527 17.920686,10.6153846 20.0214362,10.6153846 C22.1221865,10.6153846 22.1221865,11.2472527 22.1221865,11.6684982 C22.1221865,12.0897436 22.1221865,12.5952381 20.0214362,12.5952381 C17.920686,12.5952381 17.920686,12.0897436 17.920686,11.6684982 Z M33.3118971,9.68864469 C33.2261522,9.77289377 33.1832797,9.77289377 33.1404073,9.77289377 C33.0975348,9.77289377 33.0975348,9.77289377 33.0117899,9.68864469 C32.6259378,9.30952381 32.4115756,8.21428571 32.3258307,7.24542125 L33.9549839,7.24542125 C33.9121115,8.21428571 33.6977492,9.30952381 33.3118971,9.68864469 Z M26.4094319,19.7985348 C26.7524116,20.1355311 26.7524116,20.6410256 26.4094319,20.978022 C24.6945338,22.6630037 22.4222937,23.5897436 20.0214362,23.5897436 C17.6205788,23.5897436 15.3483387,22.6630037 13.6334405,20.978022 C13.2904609,20.6410256 13.2904609,20.1355311 13.6334405,19.7985348 C13.9764202,19.4615385 14.4908896,19.4615385 14.8338692,19.7985348 C16.2057878,21.1465201 18.0493033,21.9047619 19.9785638,21.9047619 C21.9506967,21.9047619 23.7513398,21.1465201 25.1232583,19.7985348 C25.5091104,19.4615385 26.0664523,19.4615385 26.4094319,19.7985348 Z M20.0214362,20.0934066 C18.5637728,20.0934066 17.1918542,19.5457875 16.1629153,18.5347985 C15.8199357,18.1978022 15.8199357,17.6923077 16.1629153,17.3553114 C16.505895,17.018315 17.0203644,17.018315 17.3633441,17.3553114 C18.0921758,18.0714286 19.0353698,18.4505495 20.0214362,18.4505495 C21.0075027,18.4505495 21.9506967,18.0714286 22.6795284,17.3553114 C23.022508,17.018315 23.5369775,17.018315 23.8799571,17.3553114 C24.2229368,17.6923077 24.2229368,18.1978022 23.8799571,18.5347985 C22.8510182,19.5457875 21.4790997,20.0934066 20.0214362,20.0934066 Z M10.2893891,4.76007326 C10.2893891,4.76007326 10.2893891,4.76007326 10.2893891,4.76007326 C13.3762058,4.76007326 13.7191854,3.11721612 13.7191854,2.4010989 C13.7191854,1.51648352 13.2904609,0.0842490842 10.2893891,0.0842490842 C8.91747053,0.0842490842 7.63129689,0.842490842 6.85959271,1.34798535 C6.13076099,0.842490842 4.8017149,0.0421245421 3.42979636,0.0421245421 C0.342979636,0.0421245421 0,1.68498168 0,2.4010989 C0,3.28571429 0.428724544,4.71794872 3.42979636,4.71794872 C3.42979636,4.71794872 3.42979636,4.71794872 3.42979636,4.71794872 C4.8017149,4.71794872 6.08788853,3.95970696 6.85959271,3.45421245 C7.58842444,4.0018315 8.87459807,4.76007326 10.2893891,4.76007326 Z M10.2893891,1.72710623 C11.4040729,1.72710623 12.0042872,1.93772894 12.0042872,2.35897436 C12.0042872,2.82234432 11.4469453,3.03296703 10.2893891,3.03296703 C9.64630225,3.03296703 8.91747053,2.6959707 8.31725616,2.35897436 C8.91747053,2.06410256 9.64630225,1.72710623 10.2893891,1.72710623 Z M3.42979636,3.03296703 C2.31511254,3.03296703 1.71489818,2.82234432 1.71489818,2.4010989 C1.71489818,1.93772894 2.27224009,1.72710623 3.42979636,1.72710623 C4.07288317,1.72710623 4.8017149,2.06410256 5.40192926,2.4010989 C4.8017149,2.6959707 4.07288317,3.03296703 3.42979636,3.03296703 Z M36.5702036,0.0421245421 C35.1982851,0.0421245421 33.9121115,0.8003663 33.1404073,1.30586081 C32.4115756,0.8003663 31.0825295,0 29.7106109,0 C26.6237942,0 26.2808146,1.64285714 26.2808146,2.35897436 C26.2808146,3.24358974 26.7095391,4.67582418 29.7106109,4.67582418 C29.7106109,4.67582418 29.7106109,4.67582418 29.7106109,4.67582418 C31.0825295,4.67582418 32.3687031,3.91758242 33.1404073,3.41208791 C33.869239,3.91758242 35.1982851,4.71794872 36.5702036,4.71794872 C36.5702036,4.71794872 36.5702036,4.71794872 36.5702036,4.71794872 C39.6570204,4.71794872 40,3.07509158 40,2.35897436 C40,1.51648352 39.5712755,0.0421245421 36.5702036,0.0421245421 Z M29.7534834,3.03296703 C28.6387996,3.03296703 28.0385852,2.82234432 28.0385852,2.4010989 C28.0385852,1.93772894 28.5959271,1.72710623 29.7534834,1.72710623 C30.3965702,1.72710623 31.1254019,2.06410256 31.7256163,2.4010989 C31.1254019,2.6959707 30.3965702,3.03296703 29.7534834,3.03296703 Z M36.5702036,3.07509158 C35.9271168,3.07509158 35.1982851,2.73809524 34.5980707,2.4010989 C35.1554126,2.06410256 35.9271168,1.72710623 36.5702036,1.72710623 C37.6848875,1.72710623 38.2851018,1.93772894 38.2851018,2.35897436 C38.2851018,2.86446886 37.7277599,3.07509158 36.5702036,3.07509158 Z" id="Shape"></path>
            </g>
            <path d="M0.3125,15.015625 L6.65625,15.015625 C6.65625,16.78125 7.578125,17.84375 9.09375,17.84375 C10.546875,17.84375 11.328125,16.90625 11.328125,15.125 L11.328125,0.453125 L17.953125,0.453125 L17.953125,15.171875 C17.953125,20.46875 14.671875,23.390625 9.1875,23.390625 C3.71875,23.390625 0.3125,20.234375 0.3125,15.015625 Z M29.578125,9.71875 C28.125,9.71875 27.015625,10.78125 26.890625,12.265625 L32.265625,12.265625 C32.15625,10.71875 31.078125,9.71875 29.578125,9.71875 Z M32.453125,17.40625 L38.15625,17.40625 C37.625,21.125 34.375,23.4375 29.640625,23.4375 C23.984375,23.4375 20.625,20.078125 20.625,14.46875 C20.625,8.828125 24.015625,5.3125 29.4375,5.3125 C34.78125,5.3125 38.234375,8.71875 38.234375,14 L38.234375,15.734375 L26.796875,15.734375 L26.796875,16.140625 C26.796875,17.828125 28.015625,19.046875 29.734375,19.046875 C31.03125,19.046875 32.078125,18.4375 32.453125,17.40625 Z M40.1875,23 L40.1875,5.75 L46.4375,5.75 L46.4375,9.140625 L46.5625,9.140625 C47.21875,6.6875 48.546875,5.5 50.59375,5.5 C51.171875,5.5 51.671875,5.59375 52.09375,5.75 L52.09375,11.125 C51.546875,10.890625 50.890625,10.765625 50.234375,10.765625 C47.828125,10.765625 46.59375,12 46.59375,14.40625 L46.59375,23 L40.1875,23 Z M61.921875,23.4375 C56.296875,23.4375 52.859375,20.1875 52.859375,14.359375 C52.859375,8.6875 56.390625,5.3125 61.921875,5.3125 C67.484375,5.3125 71,8.65625 71,14.359375 C71,20.203125 67.5625,23.4375 61.921875,23.4375 Z M61.921875,18.859375 C63.515625,18.859375 64.5,17.265625 64.5,14.375 C64.5,11.5625 63.5,9.890625 61.921875,9.890625 C60.359375,9.890625 59.359375,11.5625 59.359375,14.375 C59.359375,17.265625 60.3125,18.859375 61.921875,18.859375 Z M72.96875,23 L72.96875,5.75 L79.21875,5.75 L79.21875,9.234375 L79.34375,9.234375 C79.984375,6.90625 81.921875,5.40625 84.28125,5.40625 C86.90625,5.40625 88.65625,6.78125 89.078125,9.203125 L89.203125,9.203125 C89.78125,6.921875 91.875,5.40625 94.5,5.40625 C97.859375,5.40625 100.171875,7.828125 100.171875,11.34375 L100.171875,23 L93.765625,23 L93.765625,13 C93.765625,11.359375 93.0625,10.546875 91.671875,10.546875 C90.375,10.546875 89.609375,11.46875 89.609375,12.984375 L89.609375,23 L83.53125,23 L83.53125,13.015625 C83.53125,11.375 82.828125,10.546875 81.453125,10.546875 C80.15625,10.546875 79.375,11.484375 79.375,12.984375 L79.375,23 L72.96875,23 Z M111.03125,9.71875 C109.578125,9.71875 108.46875,10.78125 108.34375,12.265625 L113.71875,12.265625 C113.609375,10.71875 112.53125,9.71875 111.03125,9.71875 Z M113.90625,17.40625 L119.609375,17.40625 C119.078125,21.125 115.828125,23.4375 111.09375,23.4375 C105.4375,23.4375 102.078125,20.078125 102.078125,14.46875 C102.078125,8.828125 105.46875,5.3125 110.890625,5.3125 C116.234375,5.3125 119.6875,8.71875 119.6875,14 L119.6875,15.734375 L108.25,15.734375 L108.25,16.140625 C108.25,17.828125 109.46875,19.046875 111.1875,19.046875 C112.484375,19.046875 113.53125,18.4375 113.90625,17.40625 Z M129.65625,2.6875 L131.71875,2.6875 L131.71875,6.75 L134.921875,6.75 L134.921875,8.46875 L131.71875,8.46875 L131.71875,18.90625 C131.71875,20.578125 132.375,21.296875 133.875,21.296875 C134.09375,21.296875 134.875,21.265625 135,21.234375 L135,23 C134.78125,23.046875 133.90625,23.09375 133.46875,23.09375 C130.75,23.09375 129.65625,21.9375 129.65625,19 L129.65625,8.46875 L127.234375,8.46875 L127.234375,6.75 L129.65625,6.75 L129.65625,2.6875 Z M138,23 L138,0.453125 L140.078125,0.453125 L140.078125,9.75 L140.125,9.75 C140.953125,7.75 142.890625,6.484375 145.484375,6.484375 C149.046875,6.484375 151.296875,8.859375 151.296875,12.5 L151.296875,23 L149.21875,23 L149.21875,12.84375 C149.21875,10.03125 147.640625,8.328125 144.890625,8.328125 C141.96875,8.328125 140.078125,10.375 140.078125,13.4375 L140.078125,23 L138,23 Z M161.1875,8.296875 C158.28125,8.296875 156.265625,10.53125 156.09375,13.734375 L166.125,13.734375 C166.078125,10.53125 164.125,8.296875 161.1875,8.296875 Z M166,18.390625 L168.046875,18.390625 C167.5625,21.203125 164.921875,23.265625 161.34375,23.265625 C156.78125,23.265625 153.953125,20.078125 153.953125,14.921875 C153.953125,9.875 156.8125,6.484375 161.21875,6.484375 C165.53125,6.484375 168.25,9.65625 168.25,14.5 L168.25,15.375 L156.078125,15.375 L156.078125,15.5 C156.078125,19.171875 158.15625,21.453125 161.390625,21.453125 C163.84375,21.453125 165.546875,20.171875 166,18.390625 Z M177.890625,0.453125 L185.203125,0.453125 C191.953125,0.453125 195.890625,4.59375 195.890625,11.71875 C195.890625,18.859375 191.96875,23 185.203125,23 L177.890625,23 L177.890625,0.453125 Z M180.03125,2.390625 L180.03125,21.0625 L185.078125,21.0625 C190.625,21.0625 193.71875,17.71875 193.71875,11.734375 C193.71875,5.734375 190.625,2.390625 185.078125,2.390625 L180.03125,2.390625 Z M199,23 L199,6.75 L200.953125,6.75 L200.953125,9.640625 L201,9.640625 C201.59375,7.65625 203.109375,6.484375 205.109375,6.484375 C205.65625,6.484375 206.140625,6.59375 206.390625,6.65625 L206.390625,8.6875 C206.125,8.5625 205.546875,8.453125 204.84375,8.453125 C202.53125,8.453125 201.0625,10.25 201.0625,12.875 L201.0625,23 L199,23 Z M214.28125,23.265625 C209.859375,23.265625 206.875,20.03125 206.875,14.875 C206.875,9.703125 209.875,6.484375 214.28125,6.484375 C218.703125,6.484375 221.6875,9.703125 221.6875,14.875 C221.6875,20.03125 218.703125,23.265625 214.28125,23.265625 Z M214.28125,21.4375 C217.46875,21.4375 219.59375,19 219.59375,14.875 C219.59375,10.75 217.46875,8.3125 214.28125,8.3125 C211.09375,8.3125 208.984375,10.75 208.984375,14.875 C208.984375,19 211.09375,21.4375 214.28125,21.4375 Z M224.4375,23 L224.4375,6.75 L226.390625,6.75 L226.390625,9.75 L226.4375,9.75 C227.265625,7.78125 229.171875,6.484375 231.796875,6.484375 C235.359375,6.484375 237.546875,8.78125 237.546875,12.46875 L237.546875,23 L235.484375,23 L235.484375,12.796875 C235.484375,9.953125 233.921875,8.328125 231.203125,8.328125 C228.390625,8.328125 226.5,10.359375 226.5,13.375 L226.5,23 L224.4375,23 Z M247.453125,8.296875 C244.546875,8.296875 242.53125,10.53125 242.359375,13.734375 L252.390625,13.734375 C252.34375,10.53125 250.390625,8.296875 247.453125,8.296875 Z M252.265625,18.390625 L254.3125,18.390625 C253.828125,21.203125 251.1875,23.265625 247.609375,23.265625 C243.046875,23.265625 240.21875,20.078125 240.21875,14.921875 C240.21875,9.875 243.078125,6.484375 247.484375,6.484375 C251.796875,6.484375 254.515625,9.65625 254.515625,14.5 L254.515625,15.375 L242.34375,15.375 L242.34375,15.5 C242.34375,19.171875 244.421875,21.453125 247.65625,21.453125 C250.109375,21.453125 251.8125,20.171875 252.265625,18.390625 Z" id="Jerome-the-Drone"></path>
        </g>
    </g>
</svg>