<?xml version="1.0" encoding="UTF-8"?>
<svg width="255px" height="24px" viewBox="0 0 255 24" version="1.1" xmlns="http://www.w3.org/2000/svg" xmlns:xlink="http://www.w3.org/1999/xlink">
    <!-- Generator: Sketch 49.2 (51160) - http://www.bohemiancoding.com/sketch -->
    <title>Jerome the Drone</title>
    <desc>Created with Sketch.</desc>
    <defs></defs>
    <g id="Page-1" stroke="none" stroke-width="1" fill="none" fill-rule="evenodd">
        <path d="M0.3125,15.015625 L6.65625,15.015625 C6.65625,16.78125 7.578125,17.84375 9.09375,17.84375 C10.546875,17.84375 11.328125,16.90625 11.328125,15.125 L11.328125,0.453125 L17.953125,0.453125 L17.953125,15.171875 C17.953125,20.46875 14.671875,23.390625 9.1875,23.390625 C3.71875,23.390625 0.3125,20.234375 0.3125,15.015625 Z M29.578125,9.71875 C28.125,9.71875 27.015625,10.78125 26.890625,12.265625 L32.265625,12.265625 C32.15625,10.71875 31.078125,9.71875 29.578125,9.71875 Z M32.453125,17.40625 L38.15625,17.40625 C37.625,21.125 34.375,23.4375 29.640625,23.4375 C23.984375,23.4375 20.625,20.078125 20.625,14.46875 C20.625,8.828125 24.015625,5.3125 29.4375,5.3125 C34.78125,5.3125 38.234375,8.71875 38.234375,14 L38.234375,15.734375 L26.796875,15.734375 L26.796875,16.140625 C26.796875,17.828125 28.015625,19.046875 29.734375,19.046875 C31.03125,19.046875 32.078125,18.4375 32.453125,17.40625 Z M40.1875,23 L40.1875,5.75 L46.4375,5.75 L46.4375,9.140625 L46.5625,9.140625 C47.21875,6.6875 48.546875,5.5 50.59375,5.5 C51.171875,5.5 51.671875,5.59375 52.09375,5.75 L52.09375,11.125 C51.546875,10.890625 50.890625,10.765625 50.234375,10.765625 C47.828125,10.765625 46.59375,12 46.59375,14.40625 L46.59375,23 L40.1875,23 Z M61.921875,23.4375 C56.296875,23.4375 52.859375,20.1875 52.859375,14.359375 C52.859375,8.6875 56.390625,5.3125 61.921875,5.3125 C67.484375,5.3125 71,8.65625 71,14.359375 C71,20.203125 67.5625,23.4375 61.921875,23.4375 Z M61.921875,18.859375 C63.515625,18.859375 64.5,17.265625 64.5,14.375 C64.5,11.5625 63.5,9.890625 61.921875,9.890625 C60.359375,9.890625 59.359375,11.5625 59.359375,14.375 C59.359375,17.265625 60.3125,18.859375 61.921875,18.859375 Z M72.96875,23 L72.96875,5.75 L79.21875,5.75 L79.21875,9.234375 L79.34375,9.234375 C79.984375,6.90625 81.921875,5.40625 84.28125,5.40625 C86.90625,5.40625 88.65625,6.78125 89.078125,9.203125 L89.203125,9.203125 C89.78125,6.921875 91.875,5.40625 94.5,5.40625 C97.859375,5.40625 100.171875,7.828125 100.171875,11.34375 L100.171875,23 L93.765625,23 L93.765625,13 C93.765625,11.359375 93.0625,10.546875 91.671875,10.546875 C90.375,10.546875 89.609375,11.46875 89.609375,12.984375 L89.609375,23 L83.53125,23 L83.53125,13.015625 C83.53125,11.375 82.828125,10.546875 81.453125,10.546875 C80.15625,10.546875 79.375,11.484375 79.375,12.984375 L79.375,23 L72.96875,23 Z M111.03125,9.71875 C109.578125,9.71875 108.46875,10.78125 108.34375,12.265625 L113.71875,12.265625 C113.609375,10.71875 112.53125,9.71875 111.03125,9.71875 Z M113.90625,17.40625 L119.609375,17.40625 C119.078125,21.125 115.828125,23.4375 111.09375,23.4375 C105.4375,23.4375 102.078125,20.078125 102.078125,14.46875 C102.078125,8.828125 105.46875,5.3125 110.890625,5.3125 C116.234375,5.3125 119.6875,8.71875 119.6875,14 L119.6875,15.734375 L108.25,15.734375 L108.25,16.140625 C108.25,17.828125 109.46875,19.046875 111.1875,19.046875 C112.484375,19.046875 113.53125,18.4375 113.90625,17.40625 Z M129.65625,2.6875 L131.71875,2.6875 L131.71875,6.75 L134.921875,6.75 L134.921875,8.46875 L131.71875,8.46875 L131.71875,18.90625 C131.71875,20.578125 132.375,21.296875 133.875,21.296875 C134.09375,21.296875 134.875,21.265625 135,21.234375 L135,23 C134.78125,23.046875 133.90625,23.09375 133.46875,23.09375 C130.75,23.09375 129.65625,21.9375 129.65625,19 L129.65625,8.46875 L127.234375,8.46875 L127.234375,6.75 L129.65625,6.75 L129.65625,2.6875 Z M138,23 L138,0.453125 L140.078125,0.453125 L140.078125,9.75 L140.125,9.75 C140.953125,7.75 142.890625,6.484375 145.484375,6.484375 C149.046875,6.484375 151.296875,8.859375 151.296875,12.5 L151.296875,23 L149.21875,23 L149.21875,12.84375 C149.21875,10.03125 147.640625,8.328125 144.890625,8.328125 C141.96875,8.328125 140.078125,10.375 140.078125,13.4375 L140.078125,23 L138,23 Z M161.1875,8.296875 C158.28125,8.296875 156.265625,10.53125 156.09375,13.734375 L166.125,13.734375 C166.078125,10.53125 164.125,8.296875 161.1875,8.296875 Z M166,18.390625 L168.046875,18.390625 C167.5625,21.203125 164.921875,23.265625 161.34375,23.265625 C156.78125,23.265625 153.953125,20.078125 153.953125,14.921875 C153.953125,9.875 156.8125,6.484375 161.21875,6.484375 C165.53125,6.484375 168.25,9.65625 168.25,14.5 L168.25,15.375 L156.078125,15.375 L156.078125,15.5 C156.078125,19.171875 158.15625,21.453125 161.390625,21.453125 C163.84375,21.453125 165.546875,20.171875 166,18.390625 Z M177.890625,0.453125 L185.203125,0.453125 C191.953125,0.453125 195.890625,4.59375 195.890625,11.71875 C195.890625,18.859375 191.96875,23 185.203125,23 L177.890625,23 L177.890625,0.453125 Z M180.03125,2.390625 L180.03125,21.0625 L185.078125,21.0625 C190.625,21.0625 193.71875,17.71875 193.71875,11.734375 C193.71875,5.734375 190.625,2.390625 185.078125,2.390625 L180.03125,2.390625 Z M199,23 L199,6.75 L200.953125,6.75 L200.953125,9.640625 L201,9.640625 C201.59375,7.65625 203.109375,6.484375 205.109375,6.484375 C205.65625,6.484375 206.140625,6.59375 206.390625,6.65625 L206.390625,8.6875 C206.125,8.5625 205.546875,8.453125 204.84375,8.453125 C202.53125,8.453125 201.0625,10.25 201.0625,12.875 L201.0625,23 L199,23 Z M214.28125,23.265625 C209.859375,23.265625 206.875,20.03125 206.875,14.875 C206.875,9.703125 209.875,6.484375 214.28125,6.484375 C218.703125,6.484375 221.6875,9.703125 221.6875,14.875 C221.6875,20.03125 218.703125,23.265625 214.28125,23.265625 Z M214.28125,21.4375 C217.46875,21.4375 219.59375,19 219.59375,14.875 C219.59375,10.75 217.46875,8.3125 214.28125,8.3125 C211.09375,8.3125 208.984375,10.75 208.984375,14.875 C208.984375,19 211.09375,21.4375 214.28125,21.4375 Z M224.4375,23 L224.4375,6.75 L226.390625,6.75 L226.390625,9.75 L226.4375,9.75 C227.265625,7.78125 229.171875,6.484375 231.796875,6.484375 C235.359375,6.484375 237.546875,8.78125 237.546875,12.46875 L237.546875,23 L235.484375,23 L235.484375,12.796875 C235.484375,9.953125 233.921875,8.328125 231.203125,8.328125 C228.390625,8.328125 226.5,10.359375 226.5,13.375 L226.5,23 L224.4375,23 Z M247.453125,8.296875 C244.546875,8.296875 242.53125,10.53125 242.359375,13.734375 L252.390625,13.734375 C252.34375,10.53125 250.390625,8.296875 247.453125,8.296875 Z M252.265625,18.390625 L254.3125,18.390625 C253.828125,21.203125 251.1875,23.265625 247.609375,23.265625 C243.046875,23.265625 240.21875,20.078125 240.21875,14.921875 C240.21875,9.875 243.078125,6.484375 247.484375,6.484375 C251.796875,6.484375 254.515625,9.65625 254.515625,14.5 L254.515625,15.375 L242.34375,15.375 L242.34375,15.5 C242.34375,19.171875 244.421875,21.453125 247.65625,21.453125 C250.109375,21.453125 251.8125,20.171875 252.265625,18.390625 Z" id="Jerome-the-Drone" fill="#FFFFFF"></path>
    </g>
</svg>